<svg width="34" height="34" viewBox="0 0 34 34" fill="none" xmlns="http://www.w3.org/2000/svg">
<rect width="34" height="34" rx="17" fill="#2B54FF" fill-opacity="0.08"/>
<g clip-path="url(#clip0_3606_639)">
<path d="M18.6665 17.3333L19.9999 16M16.6665 15.3333L17.9999 14M14.6665 13.3333L15.9999 12M20.6665 19.3333L21.9999 18M23.1999 19.2C23.349 19.3487 23.4674 19.5253 23.5481 19.7198C23.6289 19.9142 23.6705 20.1228 23.6705 20.3333C23.6705 20.5439 23.6289 20.7524 23.5481 20.9469C23.4674 21.1414 23.349 21.318 23.1999 21.4667L21.4665 23.2C21.3179 23.3492 21.1413 23.4675 20.9468 23.5483C20.7523 23.629 20.5438 23.6706 20.3332 23.6706C20.1226 23.6706 19.9141 23.629 19.7196 23.5483C19.5251 23.4675 19.3485 23.3492 19.1999 23.2L10.7999 14.8C10.5002 14.4989 10.332 14.0914 10.332 13.6667C10.332 13.2419 10.5002 12.8344 10.7999 12.5333L12.5332 10.8C12.8343 10.5004 13.2418 10.3322 13.6665 10.3322C14.0913 10.3322 14.4988 10.5004 14.7999 10.8L23.1999 19.2Z" stroke="#2B54FF" stroke-width="1.2" stroke-linecap="round" stroke-linejoin="round"/>
</g>
<defs>
<clipPath id="clip0_3606_639">
<rect width="16" height="16" fill="white" transform="translate(9 9)"/>
</clipPath>
</defs>
</svg>
