<svg width="85" height="39" viewBox="0 0 85 39" fill="none" xmlns="http://www.w3.org/2000/svg">
<path d="M0 38.5766V0H15.4306V7.51805H7.75915V13.6552H15.0361V21.0856H7.75915V38.5766H0Z" fill="white"/>
<path d="M17.5786 38.5766V0H25.0309V38.5766H17.5786Z" fill="white"/>
<path d="M31.4092 38.5766V7.40846H26.8283V0H43.7055V7.40846H39.1245V38.5766H31.4092Z" fill="white"/>
<path d="M45.3494 38.5547V32.023H53.1962V38.5547H45.3494Z" fill="white"/>
<path d="M55.0593 38.5766L58.7855 0H71.8708L75.5312 38.5766H68.2323L67.6844 32.3517H63.0376L62.5554 38.5766H55.0593ZM63.5856 26.1926H67.0926L65.4048 6.57555H65.0541L63.5856 26.1926Z" fill="white"/>
<path d="M77.5477 38.5766V0H85V38.5766H77.5477Z" fill="white"/>
</svg>
