<svg width="56" height="56" viewBox="0 0 56 56" fill="none" xmlns="http://www.w3.org/2000/svg">
<foreignObject x="-8" y="-8" width="72" height="72"><div xmlns="http://www.w3.org/1999/xhtml" style="backdrop-filter:blur(4px);clip-path:url(#bgblur_0_3606_218_clip_path);height:100%;width:100%"></div></foreignObject><g data-figma-bg-blur-radius="8">
<rect width="56" height="56" rx="28" fill="white" fill-opacity="0.12"/>
<rect x="0.5" y="0.5" width="55" height="55" rx="27.5" stroke="white" stroke-opacity="0.12"/>
<path d="M19.0507 23.7168L19.0475 23.72L19.0411 23.7248L19.0251 23.7376C18.9557 23.7903 18.8884 23.8458 18.8235 23.904C18.656 24.0524 18.4948 24.2077 18.3403 24.3696C17.9563 24.7744 17.4635 25.376 17.0011 26.1808C16.0699 27.8048 15.2875 30.2256 15.7275 33.4624C16.1611 36.6576 17.5035 39.328 19.7723 41.1904C22.0347 43.0464 25.0971 44 28.8011 44C32.6203 44 35.6699 42.568 37.6875 40.112C39.6875 37.6784 40.5803 34.3584 40.3675 30.7296C40.1627 27.248 38.2667 24.6064 36.5915 22.2736L36.1131 21.6064C34.2859 19.0272 32.8443 16.6512 33.1947 13.3264C33.2124 13.1591 33.1947 12.9899 33.1428 12.8298C33.0909 12.6697 33.0059 12.5224 32.8934 12.3973C32.7808 12.2722 32.6432 12.1722 32.4895 12.1038C32.3358 12.0353 32.1694 12 32.0011 12C31.3899 12 30.6891 12.1888 30.0139 12.4736C29.232 12.8088 28.4943 13.2387 27.8171 13.7536C26.3371 14.8704 24.8571 16.5536 24.0683 18.8032C23.2811 21.0464 23.6811 23.184 24.2571 24.7408C24.6363 25.7632 24.2251 26.7728 23.6059 27.0672C23.3424 27.1918 23.041 27.2098 22.7646 27.1174C22.4882 27.025 22.2582 26.8293 22.1227 26.5712L20.8331 24.1216C20.7524 23.9679 20.6393 23.8336 20.5016 23.7279C20.364 23.6221 20.205 23.5475 20.0357 23.5092C19.8664 23.4709 19.6908 23.4697 19.521 23.5058C19.3512 23.542 19.1913 23.6145 19.0523 23.7184" fill="#F06100"/>
</g>
<defs>
<clipPath id="bgblur_0_3606_218_clip_path" transform="translate(8 8)"><rect width="56" height="56" rx="28"/>
</clipPath></defs>
</svg>
